# xmcd
#
# Track frame offsets: 
#        150
#        18115
#        36752
#        57880
#        75965
#        90201
#        106388
#        124477
#        142365
#        164536
#        183145
#        204792
#        221775
#        245362
#        260925
#
# Disc length: 3680 seconds
#
# Revision: 1
# Processed by: cddbd v1.5.2PL0 Copyright (c) Steve Scherf et al.
# Submitted via: ExactAudioCopyFreeDBPlugin 1.0
#
DISCID=cc0e5e0f
DTITLE=群星 - DTSES美人吟1
DYEAR=2010
DGENRE=DTS ES
TTITLE0=何日君再来
TTITLE1=绿岛小夜曲
TTITLE2=但愿人长久
TTITLE3=粉红色的回忆
TTITLE4=梅兰梅兰我爱你
TTITLE5=美酒加咖啡
TTITLE6=美人吟
TTITLE7=难忘的初恋情人
TTITLE8=恰似你的温柔
TTITLE9=桃花运
TTITLE10=甜蜜蜜
TTITLE11=晚霞中的红蜻蜓
TTITLE12=我只在乎你
TTITLE13=夜来香
TTITLE14=月亮代表我的心
EXTD=
EXTT0=
EXTT1=
EXTT2=
EXTT3=
EXTT4=
EXTT5=
EXTT6=
EXTT7=
EXTT8=
EXTT9=
EXTT10=
EXTT11=
EXTT12=
EXTT13=
EXTT14=
PLAYORDER=
